<svg width="24" height="24" viewBox="0 0 24 24" fill="none" xmlns="http://www.w3.org/2000/svg">
<g clip-path="url(#clip0)">
<path d="M7.74048 21.3132C7.74048 21.9215 7.24278 22.4192 6.63449 22.4192H2.06303C1.45473 22.4192 0.957031 21.9215 0.957031 21.3132V16.2994C0.957031 15.6911 1.45473 15.1934 2.06303 15.1934H6.63449C7.24278 15.1934 7.74048 15.6911 7.74048 16.2994V21.3132Z" fill="black"/>
<path d="M15.8733 21.3133C15.8733 21.9216 15.3756 22.4193 14.7673 22.4193H10.1958C9.58754 22.4193 9.08984 21.9216 9.08984 21.3133V13.6451C9.08984 13.0368 9.58754 12.5391 10.1958 12.5391H14.7673C15.3756 12.5391 15.8733 13.0368 15.8733 13.6451V21.3133Z" fill="black"/>
<path d="M24.0022 21.3134C24.0022 21.9217 23.5045 22.4194 22.8962 22.4194H18.3247C17.7164 22.4194 17.2188 21.9217 17.2188 21.3134V10.6958C17.2188 10.0875 17.7164 9.58984 18.3247 9.58984H22.8962C23.5045 9.58984 24.0022 10.0875 24.0022 10.6958V21.3134Z" fill="black"/>
<path d="M23.0433 1.60266L18.0755 2.8113C17.6813 2.90671 17.5935 3.21941 17.8803 3.50616L18.9403 4.54144C19.0293 4.6429 18.9237 4.77783 18.84 4.83497C18.1725 5.29064 17.1131 5.95926 15.6489 6.7232C7.67721 10.8823 1.10589 10.6271 1.00708 10.6227C0.479597 10.5959 0.0285714 11.0022 0.00129012 11.5306C-0.0259174 12.0593 0.3805 12.51 0.909167 12.5372C0.948024 12.5392 1.10603 12.5463 1.37169 12.5463C3.07545 12.5463 9.1956 12.2524 16.5357 8.4229C18.2724 7.51679 19.4762 6.7353 20.1791 6.24055C20.2785 6.17057 20.4517 6.04995 20.6116 6.21268L21.771 7.37205C22.0578 7.6588 22.3689 7.57054 22.4627 7.176L23.5897 2.14659C23.6834 1.75197 23.4374 1.50725 23.0433 1.60266Z" fill="black"/>
</g>
<defs>
<clipPath id="clip0">
<rect width="24" height="24" fill="white"/>
</clipPath>
</defs>
</svg>
