<svg width="24" height="24" viewBox="0 0 24 24" fill="none" xmlns="http://www.w3.org/2000/svg">
<path fill-rule="evenodd" clip-rule="evenodd" d="M4.80156 2.40039C5.11982 2.40039 5.42505 2.52682 5.65009 2.75186C5.87513 2.97691 6.00156 3.28213 6.00156 3.60039V6.12159C7.00001 5.10312 8.24128 4.35556 9.60845 3.94933C10.9756 3.5431 12.4237 3.49157 13.8163 3.7996C15.2089 4.10762 16.5002 4.76506 17.5685 5.70999C18.6368 6.65492 19.447 7.85624 19.9228 9.20079C19.9805 9.3505 20.0076 9.51026 20.0025 9.67063C19.9974 9.831 19.9602 9.98872 19.8931 10.1345C19.8259 10.2802 19.7303 10.411 19.6117 10.5191C19.4932 10.6272 19.3542 10.7105 19.2029 10.7639C19.0516 10.8174 18.8911 10.84 18.7309 10.8303C18.5708 10.8207 18.4142 10.779 18.2704 10.7078C18.1266 10.6365 17.9986 10.5372 17.8939 10.4156C17.7892 10.2941 17.7099 10.1527 17.6608 9.99999C17.2985 8.97617 16.6653 8.06981 15.8286 7.37748C14.9919 6.68516 13.983 6.23281 12.9094 6.06865C11.8359 5.90448 10.7379 6.03465 9.73255 6.44528C8.72716 6.85591 7.85202 7.53161 7.20036 8.40039H10.8016C11.1198 8.40039 11.425 8.52682 11.6501 8.75186C11.8751 8.97691 12.0016 9.28213 12.0016 9.60039C12.0016 9.91865 11.8751 10.2239 11.6501 10.4489C11.425 10.674 11.1198 10.8004 10.8016 10.8004H4.80156C4.4833 10.8004 4.17808 10.674 3.95303 10.4489C3.72799 10.2239 3.60156 9.91865 3.60156 9.60039V3.60039C3.60156 3.28213 3.72799 2.97691 3.95303 2.75186C4.17808 2.52682 4.4833 2.40039 4.80156 2.40039ZM4.81116 13.2688C4.95977 13.2163 5.11725 13.1936 5.27463 13.202C5.43201 13.2104 5.58619 13.2497 5.72838 13.3176C5.87057 13.3856 5.99797 13.4809 6.10332 13.5981C6.20867 13.7154 6.2899 13.8522 6.34236 14.0008C6.7046 15.0246 7.33782 15.931 8.17455 16.6233C9.01127 17.3156 10.0202 17.768 11.0937 17.9321C12.1672 18.0963 13.2652 17.9661 14.2706 17.5555C15.276 17.1449 16.1511 16.4692 16.8028 15.6004H13.2016C12.8833 15.6004 12.5781 15.474 12.353 15.2489C12.128 15.0239 12.0016 14.7186 12.0016 14.4004C12.0016 14.0821 12.128 13.7769 12.353 13.5519C12.5781 13.3268 12.8833 13.2004 13.2016 13.2004H19.2016C19.5198 13.2004 19.825 13.3268 20.0501 13.5519C20.2751 13.7769 20.4016 14.0821 20.4016 14.4004V20.4004C20.4016 20.7186 20.2751 21.0239 20.0501 21.2489C19.825 21.474 19.5198 21.6004 19.2016 21.6004C18.8833 21.6004 18.5781 21.474 18.353 21.2489C18.128 21.0239 18.0016 20.7186 18.0016 20.4004V17.8792C17.0031 18.8977 15.7618 19.6452 14.3947 20.0515C13.0275 20.4577 11.5794 20.5092 10.1868 20.2012C8.79423 19.8932 7.50297 19.2357 6.43465 18.2908C5.36634 17.3459 4.55614 16.1445 4.08036 14.8C4.02787 14.6514 4.00517 14.4939 4.01355 14.3365C4.02194 14.1791 4.06124 14.025 4.12921 13.8828C4.19718 13.7406 4.2925 13.6132 4.40972 13.5078C4.52693 13.4025 4.66375 13.3213 4.81236 13.2688H4.81116Z" fill="#5756CD"/>
</svg>
