<svg width="32" height="32" viewBox="0 0 32 32" fill="none" xmlns="http://www.w3.org/2000/svg">
<path d="M16.3977 10.3996L15.1977 10.3996L15.1977 12.7996L16.3977 12.7996L16.3977 10.3996ZM25.5977 12.7996C26.2604 12.7996 26.7977 12.2624 26.7977 11.5996C26.7977 10.9369 26.2604 10.3996 25.5977 10.3996L25.5977 12.7996ZM16.3977 12.7996L25.5977 12.7996L25.5977 10.3996L16.3977 10.3996L16.3977 12.7996Z" fill="#5756CD"/>
<path d="M5.60234 10.3996C4.9396 10.3996 4.40234 10.9369 4.40234 11.5996C4.40234 12.2624 4.9396 12.7996 5.60234 12.7996V10.3996ZM8.40234 12.7996H9.60234V10.3996H8.40234V12.7996ZM5.60234 12.7996H8.40234V10.3996H5.60234V12.7996Z" fill="#5756CD"/>
<path d="M8.8 11.6C8.8 13.5882 10.4118 15.2 12.4 15.2C14.3882 15.2 16 13.5882 16 11.6C16 9.61177 14.3882 8 12.4 8C10.4118 8 8.8 9.61177 8.8 11.6ZM13.84 11.6C13.84 12.3953 13.1953 13.04 12.4 13.04C11.6047 13.04 10.96 12.3953 10.96 11.6C10.96 10.8047 11.6047 10.16 12.4 10.16C13.1953 10.16 13.84 10.8047 13.84 11.6Z" fill="#5756CD"/>
<path d="M15.6023 19.1984L16.8023 19.1984L16.8023 21.5984L15.6023 21.5984L15.6023 19.1984ZM6.40234 21.5984C5.7396 21.5984 5.20234 21.0612 5.20234 20.3984C5.20234 19.7357 5.7396 19.1984 6.40234 19.1984L6.40234 21.5984ZM15.6023 21.5984L6.40234 21.5984L6.40234 19.1984L15.6023 19.1984L15.6023 21.5984Z" fill="#5756CD"/>
<path d="M26.3977 19.1984C27.0604 19.1984 27.5977 19.7357 27.5977 20.3984C27.5977 21.0612 27.0604 21.5984 26.3977 21.5984V19.1984ZM23.5977 21.5984H22.3977V19.1984H23.5977V21.5984ZM26.3977 21.5984H23.5977V19.1984H26.3977V21.5984Z" fill="#5756CD"/>
<path d="M23.2 20.3988C23.2 22.3871 21.5882 23.9988 19.6 23.9988C17.6118 23.9988 16 22.3871 16 20.3988C16 18.4106 17.6118 16.7988 19.6 16.7988C21.5882 16.7988 23.2 18.4106 23.2 20.3988ZM18.16 20.3988C18.16 21.1941 18.8047 21.8388 19.6 21.8388C20.3953 21.8388 21.04 21.1941 21.04 20.3988C21.04 19.6035 20.3953 18.9588 19.6 18.9588C18.8047 18.9588 18.16 19.6035 18.16 20.3988Z" fill="#5756CD"/>
</svg>
