<svg width="24" height="24" viewBox="0 0 24 24" fill="none" xmlns="http://www.w3.org/2000/svg">
<path d="M12.2992 7.79922L11.3992 7.79922L11.3992 9.59922L12.2992 9.59922L12.2992 7.79922ZM19.1992 9.59922C19.6963 9.59922 20.0992 9.19628 20.0992 8.69922C20.0992 8.20216 19.6963 7.79922 19.1992 7.79922L19.1992 9.59922ZM12.2992 9.59922L19.1992 9.59922L19.1992 7.79922L12.2992 7.79922L12.2992 9.59922Z" fill="#5551DC"/>
<path d="M4.20078 7.79922C3.70373 7.79922 3.30078 8.20216 3.30078 8.69922C3.30078 9.19628 3.70373 9.59922 4.20078 9.59922V7.79922ZM6.30078 9.59922H7.20078V7.79922H6.30078V9.59922ZM4.20078 9.59922H6.30078V7.79922H4.20078V9.59922Z" fill="#5551DC"/>
<path d="M6.6 8.7C6.6 10.1912 7.80883 11.4 9.3 11.4C10.7912 11.4 12 10.1912 12 8.7C12 7.20883 10.7912 6 9.3 6C7.80883 6 6.6 7.20883 6.6 8.7ZM10.38 8.7C10.38 9.29647 9.89647 9.78 9.3 9.78C8.70353 9.78 8.22 9.29647 8.22 8.7C8.22 8.10353 8.70353 7.62 9.3 7.62C9.89647 7.62 10.38 8.10353 10.38 8.7Z" fill="#5551DC"/>
<path d="M11.7008 14.3988L12.6008 14.3988L12.6008 16.1988L11.7008 16.1988L11.7008 14.3988ZM4.80078 16.1988C4.30373 16.1988 3.90078 15.7959 3.90078 15.2988C3.90078 14.8018 4.30372 14.3988 4.80078 14.3988L4.80078 16.1988ZM11.7008 16.1988L4.80078 16.1988L4.80078 14.3988L11.7008 14.3988L11.7008 16.1988Z" fill="#5551DC"/>
<path d="M19.7992 14.3988C20.2963 14.3988 20.6992 14.8018 20.6992 15.2988C20.6992 15.7959 20.2963 16.1988 19.7992 16.1988V14.3988ZM17.6992 16.1988H16.7992V14.3988H17.6992V16.1988ZM19.7992 16.1988H17.6992V14.3988H19.7992V16.1988Z" fill="#5551DC"/>
<path d="M17.4 15.2996C17.4 16.7908 16.1912 17.9996 14.7 17.9996C13.2088 17.9996 12 16.7908 12 15.2996C12 13.8084 13.2088 12.5996 14.7 12.5996C16.1912 12.5996 17.4 13.8084 17.4 15.2996ZM13.62 15.2996C13.62 15.8961 14.1035 16.3796 14.7 16.3796C15.2965 16.3796 15.78 15.8961 15.78 15.2996C15.78 14.7031 15.2965 14.2196 14.7 14.2196C14.1035 14.2196 13.62 14.7031 13.62 15.2996Z" fill="#5551DC"/>
</svg>
