<svg width="33" height="33" viewBox="0 0 33 33" fill="none" xmlns="http://www.w3.org/2000/svg">
<path d="M24.9009 8.11427C24.3809 7.59427 23.5409 7.59427 23.0209 8.11427L16.5009 14.6209L9.98094 8.10094C9.46094 7.58094 8.62094 7.58094 8.10094 8.10094C7.58094 8.62094 7.58094 9.46094 8.10094 9.98094L14.6209 16.5009L8.10094 23.0209C7.58094 23.5409 7.58094 24.3809 8.10094 24.9009C8.62094 25.4209 9.46094 25.4209 9.98094 24.9009L16.5009 18.3809L23.0209 24.9009C23.5409 25.4209 24.3809 25.4209 24.9009 24.9009C25.4209 24.3809 25.4209 23.5409 24.9009 23.0209L18.3809 16.5009L24.9009 9.98094C25.4076 9.47427 25.4076 8.62094 24.9009 8.11427Z" fill="white"/>
</svg>
