<svg width="222" height="56" viewBox="0 0 222 56" fill="none" xmlns="http://www.w3.org/2000/svg">
<path fill-rule="evenodd" clip-rule="evenodd" d="M150.203 0.152303C149.24 0.357125 148.154 0.788661 146.526 1.61367C144.144 2.82031 142.465 3.93219 140.649 5.50568C139.036 6.90246 135.147 10.8111 133.923 12.2662C127.467 19.9381 122.509 29.6451 120.745 38.0641C120.39 39.758 120.205 42.8998 120.304 45.5485C120.377 47.4905 120.538 48.4599 121.01 49.8075C121.829 52.1448 122.896 53.641 124.447 54.6287C126.167 55.7242 127.105 55.9972 129.155 56C131.322 56.0028 132.76 55.665 134.824 54.668C139.354 52.4799 145.941 46.2356 151.202 39.1414C152.378 37.5552 152.307 37.483 152.325 40.2925C152.331 41.3339 152.387 42.4211 152.448 42.7085C152.721 43.9835 153.728 45.3462 154.77 45.8506C155.432 46.171 156.509 46.1735 157.292 45.8563C159.003 45.1629 161.116 43.2442 163.141 40.5465C163.557 39.992 163.91 39.5509 163.925 39.5663C163.941 39.5816 163.867 40.0918 163.762 40.7001C163.386 42.8782 163.406 45.0235 163.817 46.6006C164.107 47.7141 164.986 48.856 165.897 49.3005C166.322 49.5084 166.531 49.5424 167.385 49.5424C168.3 49.5424 168.432 49.5172 169.063 49.2204C170.023 48.769 170.829 48.173 171.847 47.1604C174.592 44.4313 178.083 39.4912 180.891 34.3617C181.605 33.0566 181.957 32.461 182.201 32.1466C182.254 32.0777 183.256 32.7803 183.803 33.2698C184.499 33.8934 184.657 34.2094 184.588 34.8424C184.535 35.3264 183.95 36.9689 182.778 39.9275C181.726 42.5839 180.855 45.1174 180.64 46.1493C180.343 47.5724 180.338 49.2918 180.63 50.1895C181.439 52.6813 184.093 53.7273 186.475 52.4942C188.66 51.364 191.794 47.7915 194.777 43.0339C195.321 42.1661 195.884 41.2785 196.028 41.0616L196.289 40.6671L196.354 42.245C196.443 44.3792 196.815 45.7631 197.642 47.0345C198.511 48.3684 199.682 49.1694 201.198 49.4658C205.175 50.2438 210.996 46.3953 216.625 39.2672C218.899 36.3873 221.353 32.5379 221.906 30.9824C222.047 30.5837 222.043 30.5552 221.798 30.1942C221.188 29.2978 221.073 29.3714 218.693 32.1863C214.729 36.8743 210.554 41.0587 208.464 42.4374C206.859 43.4965 205.055 44.2666 204.18 44.2666C202.535 44.2666 201.51 42.8052 201.505 40.4562C201.504 39.434 201.588 39.3345 202.696 39.0447C205.418 38.3332 208.871 36.5174 211.206 34.57C213.092 32.9968 214.49 31.0142 215.111 29.0306C215.381 28.1673 215.482 26.5891 215.316 25.7997C214.622 22.4936 210.903 21.1167 207.225 22.8041C205.971 23.3792 204.73 24.2935 203.329 25.6748C201.921 27.0635 201.197 27.9902 199.667 30.3619C197.583 33.5926 192.397 41.0699 190.844 43.0832C188.919 45.5774 187.316 47.2224 186.603 47.4343C186.109 47.5813 185.937 47.5038 185.682 47.0204C185.344 46.3806 185.575 45.4686 187.101 41.4067C188.871 36.6997 189.166 35.3057 188.706 33.8366C188.273 32.4578 187.119 31.3083 183.77 28.9227L183.48 28.7163L183.726 27.8873C183.946 27.1474 183.973 26.8784 183.973 25.3819C183.973 23.4972 183.925 23.326 183.255 22.7741C182.692 22.3115 181.978 22.134 181.266 22.28C180.187 22.5011 179.577 22.956 178.92 24.029C178.235 25.1486 178.025 25.8454 178.021 27.009C178.016 28.4886 178.205 28.9166 179.422 30.1784L180.359 31.1505L180.197 31.4218C179.892 31.9347 177.585 35.2086 176.31 36.9395C172.695 41.8459 170.545 44.0655 169.404 44.0684C168.569 44.0705 168.428 43.8032 168.428 42.2135C168.428 39.7806 169.123 37.1739 170.62 33.9955C171.35 32.4451 171.409 32.1741 171.116 31.7032C170.684 31.009 169.606 30.368 168.865 30.3641C168.569 30.3625 168.352 30.4399 168.07 30.6471C167.517 31.0546 166.127 32.4954 164.256 34.6023C162.258 36.8509 159.731 39.363 158.963 39.8644C158.171 40.3803 157.818 40.4719 157.507 40.2418C157.17 39.9928 157.085 39.6137 157.158 38.6965C157.326 36.6047 158.47 33.7405 160.132 31.2491C162.399 27.8525 166.147 25.2106 167.624 25.9687C167.944 26.133 167.998 26.224 168.582 27.5868C168.845 28.2021 169.103 28.3444 169.688 28.1981C170.318 28.0406 170.659 27.778 170.85 27.3042C171.053 26.8002 171.053 26.3006 170.85 25.6217C170.274 23.6958 168.799 22.2998 166.988 21.9679C163.56 21.3394 158.806 24.312 155.882 28.9122C154.794 30.6245 153.559 32.1374 150.715 35.241C142.863 43.8098 138.024 47.9316 133.642 49.7834C132.839 50.1229 132.511 50.2054 131.684 50.2767C129.267 50.4852 128.235 49.9638 127.217 48.0212C126.529 46.7088 126.383 45.9909 126.385 43.9214C126.389 39.3659 127.674 34.5415 130.517 28.4159C133.27 22.4831 137.984 15.7299 142.552 11.1733C144.423 9.30756 145.592 8.32714 147.216 7.26151C149.522 5.74837 151.12 5.16832 152.389 5.38409C152.738 5.44346 153.165 5.59177 153.338 5.71376C154.182 6.31087 154.228 7.68605 153.469 9.67303C153.165 10.4684 152.894 10.8348 152.603 10.8406C151.942 10.8538 151.161 11.3336 149.963 12.4634C147.434 14.8487 145.035 18.7967 144.731 21.0772C144.639 21.7659 144.731 22.0327 145.16 22.3221C145.619 22.6323 145.989 22.6363 146.812 22.3399C148.166 21.8518 149.823 20.6203 151.693 18.7115C155.172 15.1613 157.533 11.2192 158.152 7.92716C158.409 6.56273 158.319 4.83461 157.933 3.73171C157.262 1.81228 155.928 0.587982 154.02 0.141456C153.194 -0.0518282 151.135 -0.045912 150.203 0.152303ZM28.1987 1.29534C28.1428 1.36319 28.0475 1.60203 27.9872 1.82628C27.8469 2.34726 27.745 2.42467 26.9742 2.59656C26.6249 2.67437 25.6047 2.90019 24.7069 3.09831C20.4003 4.04866 14.7989 5.91286 11.1284 7.61731C7.1496 9.46495 2.99343 11.9647 1.60293 13.3466C0.395207 14.5468 -0.175431 16.1299 0.0473614 17.6622C0.245223 19.0235 1.14037 20.7128 1.78272 20.9371C2.16881 21.0719 2.48606 20.8933 4.00876 19.6839C8.83669 15.8491 14.1764 12.9069 20.3407 10.6845C22.0166 10.0804 25.7256 8.96261 26.0544 8.96261C26.1724 8.96261 26.1963 9.02395 26.1499 9.20717C26.0683 9.53013 24.5252 13.1995 23.5572 15.3725C21.6505 19.6527 17.5203 27.9015 17.0233 28.422C16.7819 28.6748 16.588 28.7731 16.2256 28.8264C15.073 28.996 10.8786 30.2597 9.97876 30.7083C8.43491 31.4781 7.05157 33.1526 6.67253 34.7101C6.48868 35.4661 6.37107 37.6517 6.50417 37.8421C6.62108 38.0096 6.81636 37.916 7.71528 37.2619C8.96899 36.3495 13.3112 34.1093 13.8258 34.1093C13.9587 34.1093 13.9805 34.1648 13.9283 34.371C13.8324 34.7504 12.9959 36.5432 11.911 38.6948C8.09113 46.2704 6.58055 50.0189 6.75587 51.488C6.95899 53.1907 10.5667 55.431 12.3431 54.9574C12.5211 54.91 12.5902 54.7159 12.8252 53.6029C13.4529 50.6307 14.3293 48.3481 17.9409 40.2805C20.4092 34.7666 21.7668 32.0434 22.1821 31.7733C22.6802 31.4492 26.327 30.9876 29.1701 30.8887C30.9834 30.8257 32.0607 30.9324 32.7518 31.2436C33.349 31.5127 33.6004 31.4994 33.8058 31.1882C34.0692 30.7891 34.2325 29.849 34.1227 29.3638C33.9183 28.4604 33.313 28.0518 31.703 27.7301C30.9265 27.5749 30.3552 27.5544 27.3574 27.5741C25.4589 27.5865 23.9057 27.5729 23.9057 27.5439C23.9057 27.5148 24.4036 26.3953 25.0121 25.0559C28.5134 17.3494 30.257 13.2639 31.507 9.83732C32.352 7.52077 32.2616 7.60814 34.0868 7.34346C37.5488 6.84131 41.7431 6.63541 45.3916 6.78836C52.6911 7.09446 56.8078 8.11906 59.0387 10.1849C59.8535 10.9394 59.9767 11.1264 60.4119 12.2662C60.5997 12.7582 60.768 13.0551 60.8589 13.0551C61.0794 13.0551 61.5352 12.0603 61.7144 11.1881C61.8402 10.5754 61.8521 10.2869 61.7715 9.81109C61.2104 6.49981 57.9411 3.96355 52.6115 2.70503C48.9794 1.84739 44.6911 1.54425 36.7687 1.58517C32.18 1.60894 31.9606 1.60164 30.9281 1.3909C29.7322 1.14693 28.3609 1.0989 28.1987 1.29534ZM46.6021 21.9848C42.569 22.4186 37.8732 26.9803 35.4916 32.778C34.4432 35.3302 33.9387 37.5353 33.8672 39.8782C33.8264 41.2153 33.8502 41.6057 34.0236 42.4373C34.3744 44.1204 35.0649 45.2101 36.1008 45.7151C36.6091 45.9629 36.7746 45.9923 37.6626 45.992C38.5702 45.9918 38.7116 45.9653 39.3015 45.6842C40.5512 45.0889 42.9339 42.8587 44.5746 40.7486C45.0167 40.1802 45.3977 39.7342 45.4213 39.7578C45.445 39.7813 45.3899 40.2617 45.2991 40.8255C45.0708 42.2404 45.0685 44.7261 45.2943 45.8937C45.9443 49.2554 48.4892 50.5652 51.1943 48.9303C52.7311 48.0016 54.8618 45.806 57.0592 42.8868L58.2402 41.318L58.3579 43.1128C58.4226 44.0999 58.5421 45.2847 58.6234 45.7458C59.0007 47.8847 60.6673 49.9085 62.6184 50.597C63.115 50.7722 63.3395 50.7912 64.3322 50.7413C65.8077 50.667 66.3865 50.508 67.9576 49.7447C70.6538 48.435 71.9344 47.4624 75.1713 44.2666C77.1309 42.3318 78.357 41.0005 79.4853 39.5825L79.7891 39.2008L79.7009 40.1312C79.4423 42.8585 79.9771 45.4461 81.1661 47.2217C82.9303 49.8564 85.7665 50.2905 89.5441 48.504C93.0579 46.8422 96.728 43.4778 100.729 38.2511C103.036 35.2371 104.924 32.0866 105.201 30.7882C105.305 30.2995 104.895 29.6716 104.471 29.6716C104.25 29.6716 103.542 30.4166 101.281 33.0245C95.6842 39.4796 92.6642 42.254 89.7502 43.617C88.2335 44.3264 87.1975 44.4256 86.3427 43.9431C85.4313 43.4286 84.988 42.4386 84.916 40.7567C84.8657 39.5796 84.9513 39.2372 85.2955 39.2372C85.6139 39.2372 87.7912 38.4839 89.1085 37.9181C90.4992 37.3206 92.3009 36.2883 93.5346 35.3819C94.631 34.5763 96.4393 32.7676 97.0252 31.8904C99.7762 27.7713 99.1955 23.7634 95.6439 22.3593C95.1503 22.1641 94.8948 22.1338 93.7332 22.1324C92.4723 22.1308 92.3361 22.1501 91.4487 22.4552C90.9297 22.6336 90.2592 22.9168 89.9588 23.0846C87.9947 24.1807 85.5173 26.6225 83.7759 29.1786C80.3091 34.2672 72.9713 42.0415 69.7455 44.0436C68.9021 44.5671 67.3946 45.2437 66.6924 45.414C66.0648 45.5662 65.9951 45.5656 65.5722 45.4053C64.8091 45.1159 64.2087 44.5678 63.8797 43.8604C63.5898 43.2366 63.5873 43.2159 63.5959 41.5053C63.6038 39.912 63.6276 39.6926 63.9067 38.6455C64.6785 35.7481 66.0439 33.0343 67.8803 30.7473C70.0912 27.9938 72.3754 26.4409 73.1678 27.1528C73.6252 27.5638 73.4018 28.2898 71.908 31.2465C71.2923 32.4653 70.7885 33.5177 70.7885 33.5851C70.7885 33.8147 71.19 33.9342 71.7345 33.8667C72.754 33.7403 74.4277 32.7346 75.2352 31.7632C76.6203 30.0973 77.1202 28.6113 76.8034 27.1026C76.4884 25.6028 75.7401 24.5938 74.4862 23.9782C73.7441 23.6139 73.7045 23.6062 72.4144 23.5726C70.8947 23.5332 70.3665 23.6234 69.3273 24.1001C68.002 24.7081 66.9557 25.4859 65.4174 27.0074C63.7508 28.6554 63.2045 29.3344 61.2501 32.1863C55.7181 40.2589 52.5986 43.863 50.9876 44.0433C50.6353 44.0827 50.5086 44.0525 50.345 43.89C49.3631 42.9151 50.1695 38.3617 52.0336 34.3558C53.1057 32.0518 53.0977 32.136 52.3208 31.3647C51.7167 30.7651 50.9306 30.3619 50.3648 30.3619C49.7625 30.3619 49.3678 30.6985 47.4112 32.8809C44.5719 36.0479 42.7737 37.9434 41.6854 38.9161C39.4805 40.8871 38.7469 40.9193 38.762 39.0442C38.7784 37.0094 39.9273 33.9035 41.5742 31.4419C43.5129 28.5439 46.5601 26.0367 48.3593 25.8592C49.2872 25.7677 49.6589 26.0729 49.9945 27.2021C50.1756 27.8115 50.5943 28.291 50.9455 28.291C51.3357 28.291 52.2176 27.797 52.4223 27.4637C53.1577 26.2665 51.7092 23.2734 49.9934 22.445C49.1461 22.0358 47.8117 21.8548 46.6021 21.9848ZM94.3743 25.9653C94.91 26.1876 95.0526 26.4942 95.0084 27.3287C94.9794 27.8775 94.8955 28.2031 94.6484 28.7242C94.0112 30.0688 92.8022 31.4712 91.3494 32.5508C89.9763 33.571 85.9679 35.7089 85.7792 35.5215C85.6466 35.3899 85.9858 34.4976 86.724 33.0372C88.4589 29.6043 90.854 26.8641 92.8222 26.0605C93.473 25.7946 93.8998 25.7685 94.3743 25.9653ZM211.298 26.161C211.509 26.3711 211.64 26.6011 211.649 26.7773C211.702 27.9037 211.386 28.9576 210.715 29.8902C210.195 30.6133 208.845 31.926 207.945 32.5849C207.027 33.2563 205.316 34.247 203.838 34.9629C203.128 35.3068 202.513 35.5884 202.472 35.5884C202.219 35.5887 202.523 34.7338 203.385 33.0284C204.465 30.8914 205.352 29.6197 206.817 28.1067C208.245 26.6322 209.546 25.8334 210.528 25.828C210.889 25.8261 211.016 25.8812 211.298 26.161Z" fill="#5756CD"/>
</svg>
