<svg width="24" height="24" viewBox="0 0 24 24" fill="none" xmlns="http://www.w3.org/2000/svg">
<path fill-rule="evenodd" clip-rule="evenodd" d="M8.39844 2.40039C8.7167 2.40039 9.02192 2.52682 9.24697 2.75186C9.47201 2.97691 9.59844 3.28213 9.59844 3.60039V4.80039H13.1984C13.5167 4.80039 13.8219 4.92682 14.047 5.15186C14.272 5.37691 14.3984 5.68213 14.3984 6.00039C14.3984 6.31865 14.272 6.62387 14.047 6.84892C13.8219 7.07396 13.5167 7.20039 13.1984 7.20039H11.492C11.0642 9.19692 10.3683 11.1264 9.42324 12.9364C9.77124 13.3612 10.1384 13.7716 10.52 14.1676C10.6295 14.2811 10.7155 14.415 10.7732 14.5617C10.8309 14.7084 10.8591 14.865 10.8563 15.0226C10.8534 15.1802 10.8196 15.3358 10.7566 15.4803C10.6937 15.6248 10.6029 15.7555 10.4894 15.865C10.376 15.9744 10.2421 16.0605 10.0954 16.1182C9.94865 16.1758 9.79202 16.2041 9.6344 16.2012C9.47678 16.1984 9.32127 16.1645 9.17673 16.1016C9.0322 16.0386 8.90148 15.9479 8.79204 15.8344C8.56644 15.5992 8.34444 15.3592 8.12724 15.1144C7.06663 16.6902 5.81422 18.128 4.39884 19.3948C4.16121 19.6036 3.85075 19.7101 3.53499 19.6912C3.21922 19.6723 2.92369 19.5295 2.71269 19.2938C2.50169 19.0581 2.39228 18.7487 2.40826 18.4327C2.42424 18.1168 2.56433 17.82 2.79804 17.6068C4.25756 16.3006 5.52241 14.7921 6.55404 13.1272C5.88374 12.1766 5.28719 11.1761 4.76964 10.1344C4.69369 9.99277 4.64696 9.83734 4.63223 9.67732C4.61749 9.51729 4.63505 9.35594 4.68385 9.20283C4.73265 9.04972 4.81171 8.90797 4.91634 8.786C5.02096 8.66402 5.14902 8.56431 5.29292 8.49276C5.43681 8.42122 5.59361 8.3793 5.75401 8.3695C5.91441 8.35971 6.07515 8.38223 6.22668 8.43573C6.37821 8.48923 6.51745 8.57262 6.63615 8.68095C6.75484 8.78929 6.85056 8.92036 6.91764 9.06639C7.19844 9.63039 7.50444 10.18 7.83444 10.7128C8.33484 9.59199 8.73684 8.41719 9.03084 7.20039H3.59844C3.28018 7.20039 2.97495 7.07396 2.74991 6.84892C2.52487 6.62387 2.39844 6.31865 2.39844 6.00039C2.39844 5.68213 2.52487 5.37691 2.74991 5.15186C2.97495 4.92682 3.28018 4.80039 3.59844 4.80039H7.19844V3.60039C7.19844 3.28213 7.32487 2.97691 7.54991 2.75186C7.77495 2.52682 8.08018 2.40039 8.39844 2.40039ZM15.5984 9.60039C15.8212 9.60051 16.0396 9.66265 16.2291 9.77985C16.4185 9.89706 16.5716 10.0647 16.6712 10.264L20.2604 17.4424C20.2688 17.457 20.2768 17.4718 20.2844 17.4868L21.4724 19.8628C21.6149 20.1476 21.6383 20.4774 21.5376 20.7795C21.4369 21.0816 21.2203 21.3314 20.9354 21.4738C20.6506 21.6162 20.3208 21.6396 20.0187 21.5389C19.7166 21.4382 19.4669 21.2216 19.3244 20.9368L18.458 19.2004H12.7412L11.8724 20.9368C11.805 21.0827 11.709 21.2136 11.5901 21.3216C11.4712 21.4297 11.3317 21.5128 11.1801 21.566C11.0284 21.6191 10.8676 21.6413 10.7072 21.6312C10.5469 21.621 10.3901 21.5787 10.2464 21.5069C10.1027 21.435 9.97481 21.335 9.87046 21.2128C9.76611 21.0906 9.68736 20.9486 9.63891 20.7954C9.59045 20.6422 9.57326 20.4808 9.58837 20.3208C9.60347 20.1608 9.65056 20.0054 9.72684 19.864L10.9148 17.488L10.9376 17.4424L14.5256 10.264C14.6252 10.0647 14.7783 9.89706 14.9678 9.77985C15.1573 9.66265 15.3756 9.60051 15.5984 9.60039ZM13.94 16.8004H17.2568L15.5984 13.4836L13.94 16.8004Z" fill="#5756CD"/>
</svg>
