<svg width="24" height="24" viewBox="0 0 24 24" fill="none" xmlns="http://www.w3.org/2000/svg">
<path fill-rule="evenodd" clip-rule="evenodd" d="M12.3104 17.4571C12.1197 17.342 11.881 17.342 11.6903 17.4571L7.03772 20.2652C6.58333 20.5394 6.02279 20.132 6.14337 19.6152L7.37805 14.3226C7.42865 14.1057 7.35494 13.8786 7.1866 13.7328L3.07516 10.1711C2.674 9.82355 2.88844 9.16459 3.4173 9.11972L8.8298 8.66053C9.05155 8.64171 9.24467 8.50171 9.33151 8.29681L11.4479 3.30336C11.6546 2.81555 12.346 2.81555 12.5528 3.30336L14.6691 8.29681C14.756 8.50171 14.9491 8.64171 15.1708 8.66053L20.5833 9.11972C21.1122 9.16459 21.3266 9.82355 20.9255 10.1711L16.814 13.7328C16.6457 13.8786 16.572 14.1057 16.6226 14.3226L17.8573 19.6152C17.9779 20.132 17.4173 20.5394 16.9629 20.2652L12.3104 17.4571Z" fill="#F9C32A"/>
</svg>
